<svg version="1.2" baseProfile="tiny-ps" xmlns="http://www.w3.org/2000/svg" viewBox="0 0 206 206" width="206" height="206">
	<title>cruscan_full_v1-svg</title>
	<style>
		tspan { white-space:pre }
		.shp0 { fill: #000000 } 
	</style>
	<g id="Layer">
		<path id="Layer" class="shp0" d="M158.61 11.59C151.43 17.81 145.44 23.02 145.44 23.32C145.34 23.92 153.55 28.51 153.85 28.11C155.84 25.6 172.49 0.26 172.09 0.26C171.89 0.26 165.9 5.38 158.61 11.59Z" />
		<path id="Layer" class="shp0" d="M87.32 14.04C71.62 17.18 57.74 23.21 45.86 31.94C29.38 44.27 16.72 63.91 11.37 85.62C10.48 89.03 9.99 96.43 10.11 105.13C10.14 121.03 12.16 130.63 18.09 143.32C21.61 151.02 30.13 163.8 33.94 167.5L36.34 169.59L40.34 164.88C47.62 156.16 47.52 156.47 42.9 150.37C37.09 142.78 34.08 137.19 30.86 128.09C28.34 120.7 28.14 119 28.11 105.09C28.08 91.59 28.38 89.29 30.66 82.28C37.42 61.96 52.19 45.93 72.07 37.08C87.45 30.35 110.05 29.4 124.66 34.97L128.57 36.46L135.85 30.15L143.04 23.83L136.43 20.64C126.02 15.56 119.42 14.18 103.82 13.91C96.12 13.73 88.72 13.84 87.32 14.04Z" />
		<path id="Layer" class="shp0" d="M149.17 37.42L144.58 44.63L149.29 48.62C156.8 55.01 163.12 63.1 167.44 71.69C172.46 82.08 174.48 89.48 175.2 101.28C177.17 132.79 158.73 161.53 128.95 173.5C108.27 181.94 88.07 180.89 66.35 170.43L61.74 168.14L54.65 172.85C50.86 175.46 47.66 177.97 47.66 178.47C47.67 180.87 63.79 189.24 75.69 193.02C86 196.29 106.5 197.55 116.9 195.53C158.98 187.44 189.31 153.77 193.02 110.75C193.8 102.24 191.47 85.14 188.35 76.15C183.92 63.25 177.5 52.46 168.38 42.68C164.07 37.99 155.25 30.31 154.15 30.31C153.85 30.31 151.66 33.51 149.17 37.42Z" />
		<path id="Layer" class="shp0" d="M87.94 72.56C65.48 91.91 45.72 108.96 44.12 110.56L41.23 113.37L62.33 112.82C74.03 112.5 83.52 112.38 83.53 112.68C83.53 112.98 75.75 122.9 66.17 134.62C56.6 146.34 49.02 156.36 49.22 156.76C49.52 157.16 52.42 159.56 55.73 162.15L61.74 166.74L78.91 155C88.4 148.58 99.68 140.75 104.08 137.74C108.47 134.63 116.36 129.11 121.55 125.5C126.75 121.89 134.23 116.77 138.03 114.06C141.92 111.35 149.41 106.14 154.8 102.53C160.1 98.81 164.49 95.5 164.49 95.1C164.49 94.7 152.29 94.23 137.49 94.16L110.39 93.92L126.44 69.68C135.31 56.35 142.28 44.94 141.88 44.34C141.38 43.54 130.17 37.36 129.17 37.36C128.97 37.36 110.5 53.21 87.94 72.56Z" />
		<path id="Layer" fill-rule="evenodd" class="shp0" d="M1214.1 50.39C1215.6 50.68 1289.6 148.65 1288.91 149.36C1288.51 149.66 1283.41 149.97 1277.31 149.98C1264.71 150.01 1267.11 151.7 1253.37 133.53L1245.05 122.54L1214.35 122.3L1183.65 122.17L1173.08 136.2L1162.51 150.32L1151.51 150.04C1145.11 149.86 1140.6 149.37 1140.6 148.77C1140.5 148.17 1156.86 125.83 1176.7 98.98C1196.64 72.13 1213.4 50.19 1214.1 50.39ZM1214.26 82.09C1213.86 82.1 1210.17 86.6 1205.98 92.11L1198.41 102.13L1229.71 102.07L1226.1 97.27C1224.09 94.68 1220.78 90.28 1218.67 87.39C1216.67 84.49 1214.66 82.19 1214.26 82.09Z" />
		<path id="Layer" class="shp0" d="M621.11 56.93C620.01 58.04 620.4 100.85 621.52 108.85C624.36 128.15 639.69 142.92 662.8 148.17C675.11 151.05 681.81 151.53 695.21 150.3C722 147.85 740.78 137.4 748.84 120.38L752.03 113.57L752.27 84.77L752.51 56.06L742.91 56.08L733.41 56.1L733.46 80.8C733.49 95.51 733.02 107.21 732.42 109.51C729.94 118.52 718.46 126.55 703.36 129.78C692.87 132.1 671.37 131.25 662.86 128.26C654.35 125.28 646.54 119.7 643.53 114.3C641.12 109.91 641.02 109.31 640.47 83.3L639.91 56.79L630.91 56.51C625.91 56.42 621.51 56.53 621.11 56.93Z" />
		<path id="Layer" class="shp0" d="M818.11 57.02C801.62 60.96 792.95 76.88 798.09 93.87C799.9 100.27 805.91 106.66 813.12 110.04C817.93 112.34 818.63 112.43 860.23 112.85C901.03 113.26 902.43 113.36 905.23 115.35C909.44 118.44 909.76 127.45 905.86 129.35C904.86 129.86 879.96 130.51 850.57 130.87L797.07 131.48L796.79 141.29L796.51 151.09L851.81 150.67L907.11 150.26L912.8 147.45C927.19 140.31 932.35 124.1 925.02 109.11C922.31 103.61 918 99.62 910.99 96.24C907.29 94.34 904.19 94.25 864.79 93.83C824.09 93.42 822.49 93.32 819.88 91.33C814.87 87.63 814.86 79.63 819.75 77.02C821.35 76.22 837.25 75.78 874.95 75.51L927.95 75.19L928.23 65.39L928.51 55.69L875.21 55.9C845.91 56.06 820.21 56.52 818.11 57.02Z" />
		<path id="Layer" fill-rule="evenodd" class="shp0" d="M446.51 57.6L500.71 57.79C553.61 57.98 555.01 57.97 559.52 60.06C566.22 63.15 571.83 68.64 574.45 74.64C576.36 78.93 576.66 81.13 576.27 87.44C575.79 95.94 574 100.14 568.71 105.76C562.53 112.17 557.23 113.48 537.53 113.52C518.73 113.56 518.73 113.56 522.84 119.66C528.46 128.05 536.66 130.63 558.37 131.29L574.57 131.65L574.61 150.26L569.41 150.87C562.61 151.68 540.71 150.03 533.3 148.04C525.4 146.06 518.29 142.27 512.88 137.28C506.77 131.69 504.66 128.5 502.04 120.8L499.73 114.1L482.63 113.84L465.53 113.68L465.37 132.38L465.11 151.19L455.61 150.91C450.41 150.72 446.11 150.43 446.11 150.43C446.11 150.33 446.16 129.42 446.31 103.91L446.51 57.6ZM506.25 76.58L465.45 76.67L465.49 94.77L553.69 93.99L555.58 91.58C557.88 88.78 558.07 83.77 555.96 80.78C555.06 79.58 552.75 78.08 550.65 77.49C548.35 76.89 531.15 76.53 506.25 76.58Z" />
		<path id="Layer" class="shp0" d="M1438.47 85.12C1438.51 105.73 1438.23 114.63 1437.43 114.63C1436.43 114.64 1408.6 100.39 1352.54 71.1C1338.53 63.83 1326.71 57.85 1326.21 57.85C1325.81 57.85 1325.56 78.66 1325.71 104.07L1326.11 150.38L1335.61 150.36L1345.11 150.34L1345.55 120.63L1345.98 90.82L1387.53 112.34C1410.35 124.09 1435.48 137.14 1443.39 141.23L1457.6 148.6L1457.51 102.09L1457.41 55.58L1447.91 55.6L1438.41 55.62L1438.47 85.12Z" />
		<path id="Layer" class="shp0" d="M322.02 60.06C312.12 61.58 304.22 63.9 296.93 67.52C277.65 77.06 267.99 96.69 272.93 116.08C277.07 131.98 291.59 144.55 311.6 149.51C320.01 151.59 356.31 152.92 382.91 152.16L402.61 151.52L402.59 145.32C402.59 141.82 402.28 137.71 401.98 136.02L401.37 132.92L360.67 132.7C322.07 132.38 319.77 132.29 313.56 130.3C300.45 125.83 293.34 119.34 291.32 109.94C289.91 102.84 291.39 97.24 296.18 91.93C301.07 86.51 306.56 83.4 316.06 80.78C323.35 78.77 326.85 78.66 363.25 78.08L402.45 77.6L402.43 68.2L402.41 58.79L365.21 58.97C344.71 59.11 325.21 59.56 322.02 60.06Z" />
		<path id="Layer" class="shp0" d="M1022.81 58.59C999.72 61.64 984.04 71.28 975.97 87.2C973.19 92.7 972.99 93.8 973.01 104.61C973.03 115.31 973.24 116.51 976.05 122.01C981.87 133.9 994.89 143.27 1011.3 147.74C1020.81 150.22 1054.21 151.55 1083.91 150.59L1102.61 150.05L1102.59 140.74L1102.57 131.44L1061.87 131.23C1024.27 130.91 1020.57 130.71 1014.36 128.93C1005.86 126.24 998.55 121.56 994.94 116.36C992.33 112.67 992.02 111.37 992.01 104.57C992 97.87 992.29 96.36 994.79 92.66C1000.07 84.75 1011.66 79.42 1028.35 77.48C1033.05 76.97 1051.65 76.43 1069.75 76.4L1102.45 76.33L1102.43 66.83L1102.41 57.32L1065.71 57.5C1045.41 57.64 1026.11 58.08 1022.81 58.59Z" />
		<path id="Layer" class="shp0" d="M24.28 186.32C17.7 194.34 13.01 200.55 13.81 200.15C15.31 199.24 17.8 197.44 34.38 185.7L44.56 178.48L40.76 175.08C38.65 173.19 36.75 171.59 36.45 171.59C36.25 171.59 30.76 178.21 24.28 186.32Z" />
	</g>
</svg>