<svg version="1.2" baseProfile="tiny-ps" xmlns="http://www.w3.org/2000/svg" viewBox="0 0 1467 233" width="1467" height="233">
	<title>cruscanlogo-svg</title>
	<style>
		tspan { white-space:pre }
		.shp0 { fill: #000000 } 
	</style>
	<g id="Layer">
		<path id="Layer" class="shp0" d="M158.61 25.59C151.43 31.81 145.44 37.02 145.44 37.32C145.34 37.92 153.55 42.51 153.85 42.11C155.84 39.6 172.49 14.26 172.09 14.26C171.89 14.26 165.9 19.38 158.61 25.59Z" />
		<path id="Layer" class="shp0" d="M87.32 28.04C71.62 31.18 57.74 37.21 45.86 45.94C29.38 58.27 16.72 77.91 11.37 99.62C10.48 103.03 9.99 110.43 10.11 119.13C10.14 135.03 12.16 144.63 18.09 157.32C21.61 165.02 30.13 177.8 33.94 181.5L36.34 183.59L40.34 178.88C47.62 170.16 47.52 170.47 42.9 164.37C37.09 156.78 34.08 151.19 30.86 142.09C28.34 134.7 28.14 133 28.11 119.09C28.08 105.59 28.38 103.29 30.66 96.28C37.42 75.96 52.19 59.93 72.07 51.08C87.45 44.35 110.05 43.4 124.66 48.97L128.57 50.46L135.85 44.15L143.04 37.83L136.43 34.64C126.02 29.56 119.42 28.18 103.82 27.91C96.12 27.73 88.72 27.84 87.32 28.04Z" />
		<path id="Layer" class="shp0" d="M149.17 51.42L144.58 58.63L149.29 62.62C156.8 69.01 163.12 77.1 167.44 85.69C172.46 96.08 174.48 103.48 175.2 115.28C177.17 146.79 158.73 175.53 128.95 187.5C108.27 195.94 88.07 194.89 66.35 184.43L61.74 182.14L54.65 186.85C50.86 189.46 47.66 191.97 47.66 192.47C47.67 194.87 63.79 203.24 75.69 207.02C86 210.29 106.5 211.55 116.9 209.53C158.98 201.44 189.31 167.77 193.02 124.75C193.8 116.24 191.47 99.14 188.35 90.15C183.92 77.25 177.5 66.46 168.38 56.68C164.07 51.99 155.25 44.31 154.15 44.31C153.85 44.31 151.66 47.51 149.17 51.42Z" />
		<path id="Layer" class="shp0" d="M87.94 86.56C65.48 105.91 45.72 122.96 44.12 124.56L41.23 127.37L62.33 126.82C74.03 126.5 83.52 126.38 83.53 126.68C83.53 126.98 75.75 136.9 66.17 148.62C56.6 160.34 49.02 170.36 49.22 170.76C49.52 171.16 52.42 173.56 55.73 176.15L61.74 180.74L78.91 169C88.4 162.58 99.68 154.75 104.08 151.74C108.47 148.63 116.36 143.11 121.55 139.5C126.75 135.89 134.23 130.77 138.03 128.06C141.92 125.35 149.41 120.14 154.8 116.53C160.1 112.81 164.49 109.5 164.49 109.1C164.49 108.7 152.29 108.23 137.49 108.16L110.39 107.92L126.44 83.68C135.31 70.35 142.28 58.94 141.88 58.34C141.38 57.54 130.17 51.36 129.17 51.36C128.97 51.36 110.5 67.21 87.94 86.56Z" />
		<path id="Layer" fill-rule="evenodd" class="shp0" d="M1214.1 64.39C1215.6 64.68 1289.6 162.65 1288.91 163.36C1288.51 163.66 1283.41 163.97 1277.31 163.98C1264.71 164.01 1267.11 165.7 1253.37 147.53L1245.05 136.54L1214.35 136.3L1183.65 136.17L1173.08 150.2L1162.51 164.32L1151.51 164.04C1145.11 163.86 1140.6 163.37 1140.6 162.77C1140.5 162.17 1156.86 139.83 1176.7 112.98C1196.64 86.13 1213.4 64.19 1214.1 64.39ZM1214.26 96.09C1213.86 96.1 1210.17 100.6 1205.98 106.11L1198.41 116.13L1229.71 116.07L1226.1 111.27C1224.09 108.68 1220.78 104.28 1218.67 101.39C1216.67 98.49 1214.66 96.19 1214.26 96.09Z" />
		<path id="Layer" class="shp0" d="M621.11 70.93C620.01 72.04 620.4 114.85 621.52 122.85C624.36 142.15 639.69 156.92 662.8 162.17C675.11 165.05 681.81 165.53 695.21 164.3C722 161.85 740.78 151.4 748.84 134.38L752.03 127.57L752.27 98.77L752.51 70.06L742.91 70.08L733.41 70.1L733.46 94.8C733.49 109.51 733.02 121.21 732.42 123.51C729.94 132.52 718.46 140.55 703.36 143.78C692.87 146.1 671.37 145.25 662.86 142.26C654.35 139.28 646.54 133.7 643.53 128.3C641.12 123.91 641.02 123.31 640.47 97.3L639.91 70.79L630.91 70.51C625.91 70.42 621.51 70.53 621.11 70.93Z" />
		<path id="Layer" class="shp0" d="M818.11 71.02C801.62 74.96 792.95 90.88 798.09 107.87C799.9 114.27 805.91 120.66 813.12 124.04C817.93 126.34 818.63 126.43 860.23 126.85C901.03 127.26 902.43 127.36 905.23 129.35C909.44 132.44 909.76 141.45 905.86 143.35C904.86 143.86 879.96 144.51 850.57 144.87L797.07 145.48L796.79 155.29L796.51 165.09L851.81 164.67L907.11 164.26L912.8 161.45C927.19 154.31 932.35 138.1 925.02 123.11C922.31 117.61 918 113.62 910.99 110.24C907.29 108.34 904.19 108.25 864.79 107.83C824.09 107.42 822.49 107.32 819.88 105.33C814.87 101.63 814.86 93.63 819.75 91.02C821.35 90.22 837.25 89.78 874.95 89.51L927.95 89.19L928.23 79.39L928.51 69.69L875.21 69.9C845.91 70.06 820.21 70.52 818.11 71.02Z" />
		<path id="Layer" fill-rule="evenodd" class="shp0" d="M446.51 71.6L500.71 71.79C553.61 71.98 555.01 71.97 559.52 74.06C566.22 77.15 571.83 82.64 574.45 88.64C576.36 92.93 576.66 95.13 576.27 101.44C575.79 109.94 574 114.14 568.71 119.76C562.53 126.17 557.23 127.48 537.53 127.52C518.73 127.56 518.73 127.56 522.84 133.66C528.46 142.05 536.66 144.63 558.37 145.29L574.57 145.65L574.61 164.26L569.41 164.87C562.61 165.68 540.71 164.03 533.3 162.04C525.4 160.06 518.29 156.27 512.88 151.28C506.77 145.69 504.66 142.5 502.04 134.8L499.73 128.1L482.63 127.84L465.53 127.68L465.37 146.38L465.11 165.19L455.61 164.91C450.41 164.72 446.11 164.43 446.11 164.43C446.11 164.33 446.16 143.42 446.31 117.91L446.51 71.6ZM506.25 90.58L465.45 90.67L465.49 108.77L553.69 107.99L555.58 105.58C557.88 102.78 558.07 97.77 555.96 94.78C555.06 93.58 552.75 92.08 550.65 91.49C548.35 90.89 531.15 90.53 506.25 90.58Z" />
		<path id="Layer" class="shp0" d="M1438.47 99.12C1438.51 119.73 1438.23 128.63 1437.43 128.63C1436.43 128.64 1408.6 114.39 1352.54 85.1C1338.53 77.83 1326.71 71.85 1326.21 71.85C1325.81 71.85 1325.56 92.66 1325.71 118.07L1326.11 164.38L1335.61 164.36L1345.11 164.34L1345.55 134.63L1345.98 104.82L1387.53 126.34C1410.35 138.09 1435.48 151.14 1443.39 155.23L1457.6 162.6L1457.51 116.09L1457.41 69.58L1447.91 69.6L1438.41 69.62L1438.47 99.12Z" />
		<path id="Layer" class="shp0" d="M322.02 74.06C312.12 75.58 304.22 77.9 296.93 81.52C277.65 91.06 267.99 110.69 272.93 130.08C277.07 145.98 291.59 158.55 311.6 163.51C320.01 165.59 356.31 166.92 382.91 166.16L402.61 165.52L402.59 159.32C402.59 155.82 402.28 151.71 401.98 150.02L401.37 146.92L360.67 146.7C322.07 146.38 319.77 146.29 313.56 144.3C300.45 139.83 293.34 133.34 291.32 123.94C289.91 116.84 291.39 111.24 296.18 105.93C301.07 100.51 306.56 97.4 316.06 94.78C323.35 92.77 326.85 92.66 363.25 92.08L402.45 91.6L402.43 82.2L402.41 72.79L365.21 72.97C344.71 73.11 325.21 73.56 322.02 74.06Z" />
		<path id="Layer" class="shp0" d="M1022.81 72.59C999.72 75.64 984.04 85.28 975.97 101.2C973.19 106.7 972.99 107.8 973.01 118.61C973.03 129.31 973.24 130.51 976.05 136.01C981.87 147.9 994.89 157.27 1011.3 161.74C1020.81 164.22 1054.21 165.55 1083.91 164.59L1102.61 164.05L1102.59 154.74L1102.57 145.44L1061.87 145.23C1024.27 144.91 1020.57 144.71 1014.36 142.93C1005.86 140.24 998.55 135.56 994.94 130.36C992.33 126.67 992.02 125.37 992.01 118.57C992 111.87 992.29 110.36 994.79 106.66C1000.07 98.75 1011.66 93.42 1028.35 91.48C1033.05 90.97 1051.65 90.43 1069.75 90.4L1102.45 90.33L1102.43 80.83L1102.41 71.32L1065.71 71.5C1045.41 71.64 1026.11 72.08 1022.81 72.59Z" />
		<path id="Layer" class="shp0" d="M24.28 200.32C17.7 208.34 13.01 214.55 13.81 214.15C15.31 213.24 17.8 211.44 34.38 199.7L44.56 192.48L40.76 189.08C38.65 187.19 36.75 185.59 36.45 185.59C36.25 185.59 30.76 192.21 24.28 200.32Z" />
	</g>
</svg>