<svg version="1.2" baseProfile="tiny-ps" xmlns="http://www.w3.org/2000/svg" viewBox="0 0 1467 233" width="1467" height="233">
	<title>cruscan_full_v1-svg</title>
	<style>
		tspan { white-space:pre }
		.shp0 { fill: #ffffff } 
	</style>
	<g id="Layer">
		<path id="Layer" fill-rule="evenodd" class="shp0" d="M1214.1 64.39C1215.6 64.68 1289.6 162.65 1288.91 163.36C1288.51 163.66 1283.41 163.97 1277.31 163.98C1264.71 164.01 1267.11 165.7 1253.37 147.53L1245.05 136.54L1214.35 136.3L1183.65 136.17L1173.08 150.2L1162.51 164.32L1151.51 164.04C1145.11 163.86 1140.6 163.37 1140.6 162.77C1140.5 162.17 1156.86 139.83 1176.7 112.98C1196.64 86.13 1213.4 64.19 1214.1 64.39ZM1214.26 96.09C1213.86 96.1 1210.17 100.6 1205.98 106.11L1198.41 116.13L1229.71 116.07L1226.1 111.27C1224.09 108.68 1220.78 104.28 1218.67 101.39C1216.67 98.49 1214.66 96.19 1214.26 96.09ZM630.91 70.51L639.91 70.79L640.47 97.3C641.02 123.31 641.12 123.91 643.53 128.3C646.54 133.7 654.35 139.28 662.86 142.26C671.37 145.25 692.87 146.1 703.36 143.78C718.46 140.55 729.94 132.52 732.42 123.51C733.02 121.21 733.49 109.51 733.46 94.8L733.41 70.1L742.91 70.08L752.51 70.06L752.27 98.77L752.03 127.57L748.84 134.38C740.78 151.4 722 161.85 695.21 164.3C681.81 165.53 675.11 165.05 662.8 162.17C639.69 156.92 624.36 142.15 621.52 122.85C620.4 114.85 620.01 72.04 621.11 70.93C621.51 70.53 625.91 70.42 630.91 70.51ZM875.21 69.9L928.51 69.69L928.23 79.39L927.95 89.19L874.95 89.51C837.25 89.78 821.35 90.22 819.75 91.02C814.86 93.63 814.87 101.63 819.88 105.33C822.49 107.32 824.09 107.42 864.79 107.83C904.19 108.25 907.29 108.34 910.99 110.24C918 113.62 922.31 117.61 925.02 123.11C932.35 138.1 927.19 154.31 912.8 161.45L907.11 164.26L851.81 164.67L796.51 165.09L796.79 155.29L797.07 145.48L850.57 144.87C879.96 144.51 904.86 143.86 905.86 143.35C909.76 141.45 909.44 132.44 905.23 129.35C902.43 127.36 901.03 127.26 860.23 126.85C818.63 126.43 817.93 126.34 813.12 124.04C805.91 120.66 799.9 114.27 798.09 107.87C792.95 90.88 801.62 74.96 818.11 71.02C820.21 70.52 845.91 70.06 875.21 69.9ZM446.51 71.6L500.71 71.79C553.61 71.98 555.01 71.97 559.52 74.06C566.22 77.15 571.83 82.64 574.45 88.64C576.36 92.93 576.66 95.13 576.27 101.44C575.79 109.94 574 114.14 568.71 119.76C562.53 126.17 557.23 127.48 537.53 127.52C518.73 127.56 518.73 127.56 522.84 133.66C528.46 142.05 536.66 144.63 558.37 145.29L574.57 145.65L574.61 164.26L569.41 164.87C562.61 165.68 540.71 164.03 533.3 162.04C525.4 160.06 518.29 156.27 512.88 151.28C506.77 145.69 504.66 142.5 502.04 134.8L499.73 128.1L482.63 127.84L465.53 127.68L465.37 146.38L465.11 165.19L455.61 164.91C450.41 164.72 446.11 164.43 446.11 164.43C446.11 164.33 446.16 143.42 446.31 117.91L446.51 71.6ZM506.25 90.58L465.45 90.67L465.49 108.77L553.69 107.99L555.58 105.58C557.88 102.78 558.07 97.77 555.96 94.78C555.06 93.58 552.75 92.08 550.65 91.49C548.35 90.89 531.15 90.53 506.25 90.58ZM1438.41 69.62L1457.41 69.58L1457.51 116.09L1457.6 162.6L1443.39 155.23C1435.48 151.14 1410.35 138.09 1387.53 126.34L1345.98 104.82L1345.55 134.63L1345.11 164.34L1326.11 164.38L1325.71 118.07C1325.56 92.66 1325.81 71.85 1326.21 71.85C1326.71 71.85 1338.53 77.83 1352.54 85.1C1408.6 114.39 1436.43 128.64 1437.43 128.63C1438.23 128.63 1438.51 119.73 1438.47 99.12L1438.41 69.62ZM365.21 72.97L402.41 72.79L402.43 82.2L402.45 91.6L363.25 92.08C326.85 92.66 323.35 92.77 316.06 94.78C306.56 97.4 301.07 100.51 296.18 105.93C291.39 111.24 289.91 116.84 291.32 123.94C293.34 133.34 300.45 139.83 313.56 144.3C319.77 146.29 322.07 146.38 360.67 146.7L401.37 146.92L401.98 150.02C402.28 151.71 402.59 155.82 402.59 159.32L402.61 165.52L382.91 166.16C356.31 166.92 320.01 165.59 311.6 163.51C291.59 158.55 277.07 145.98 272.93 130.08C267.99 110.69 277.65 91.06 296.93 81.52C304.22 77.9 312.12 75.58 322.02 74.06C325.21 73.56 344.71 73.11 365.21 72.97ZM1065.71 71.5L1102.41 71.32L1102.43 80.83L1102.45 90.33L1069.75 90.4C1051.65 90.43 1033.05 90.97 1028.35 91.48C1011.66 93.42 1000.07 98.75 994.79 106.66C992.29 110.36 992 111.87 992.01 118.57C992.02 125.37 992.33 126.67 994.94 130.36C998.55 135.56 1005.86 140.24 1014.36 142.93C1020.57 144.71 1024.27 144.91 1061.87 145.23L1102.57 145.44L1102.59 154.74L1102.61 164.05L1083.91 164.59C1054.21 165.55 1020.81 164.22 1011.3 161.74C994.89 157.27 981.87 147.9 976.05 136.01C973.24 130.51 973.03 129.31 973.01 118.61C972.99 107.8 973.19 106.7 975.97 101.2C984.04 85.28 999.72 75.64 1022.81 72.59C1026.11 72.08 1045.41 71.64 1065.71 71.5Z" />
		<path id="Layer" class="shp0" d="M158.61 25.59C151.43 31.81 145.44 37.02 145.44 37.32C145.34 37.92 153.55 42.51 153.85 42.11C155.84 39.6 172.49 14.26 172.09 14.26C171.89 14.26 165.9 19.38 158.61 25.59ZM87.32 28.04C71.62 31.18 57.74 37.21 45.86 45.94C29.38 58.27 16.72 77.91 11.37 99.62C10.48 103.03 9.99 110.43 10.11 119.13C10.14 135.03 12.16 144.63 18.09 157.32C21.61 165.02 30.13 177.8 33.94 181.5L36.34 183.59L40.34 178.88C47.62 170.16 47.52 170.47 42.9 164.37C37.09 156.78 34.08 151.19 30.86 142.09C28.34 134.7 28.14 133 28.11 119.09C28.08 105.59 28.38 103.29 30.66 96.28C37.42 75.96 52.19 59.93 72.07 51.08C87.45 44.35 110.05 43.4 124.66 48.97L128.57 50.46L135.85 44.15L143.04 37.83L136.43 34.64C126.02 29.56 119.42 28.18 103.82 27.91C96.12 27.73 88.72 27.84 87.32 28.04ZM149.17 51.42L144.58 58.63L149.29 62.62C156.8 69.01 163.12 77.1 167.44 85.69C172.46 96.08 174.48 103.48 175.2 115.28C177.17 146.79 158.73 175.53 128.95 187.5C108.27 195.94 88.07 194.89 66.35 184.43L61.74 182.14L54.65 186.85C50.86 189.46 47.66 191.97 47.66 192.47C47.67 194.87 63.79 203.24 75.69 207.02C86 210.29 106.5 211.55 116.9 209.53C158.98 201.44 189.31 167.77 193.02 124.75C193.8 116.24 191.47 99.14 188.35 90.15C183.92 77.25 177.5 66.46 168.38 56.68C164.07 51.99 155.25 44.31 154.15 44.31C153.85 44.31 151.66 47.51 149.17 51.42ZM87.94 86.56C65.48 105.91 45.72 122.96 44.12 124.56L41.23 127.37L62.33 126.82C74.03 126.5 83.52 126.38 83.53 126.68C83.53 126.98 75.75 136.9 66.17 148.62C56.6 160.34 49.02 170.36 49.22 170.76C49.52 171.16 52.42 173.56 55.73 176.15L61.74 180.74L78.91 169C88.4 162.58 99.68 154.75 104.08 151.74C108.47 148.63 116.36 143.11 121.55 139.5C126.75 135.89 134.23 130.77 138.03 128.06C141.92 125.35 149.41 120.14 154.8 116.53C160.1 112.81 164.49 109.5 164.49 109.1C164.49 108.7 152.29 108.23 137.49 108.16L110.39 107.92L126.44 83.68C135.31 70.35 142.28 58.94 141.88 58.34C141.38 57.54 130.17 51.36 129.17 51.36C128.97 51.36 110.5 67.21 87.94 86.56ZM24.28 200.32C17.7 208.34 13.01 214.55 13.81 214.15C15.31 213.24 17.8 211.44 34.38 199.7L44.56 192.48L40.76 189.08C38.65 187.19 36.75 185.59 36.45 185.59C36.25 185.59 30.76 192.21 24.28 200.32Z" />
	</g>
</svg>