<svg version="1.2" baseProfile="tiny-ps" xmlns="http://www.w3.org/2000/svg" viewBox="0 0 651 649" width="651" height="649">
	<title>scanorder-svg</title>
	<style>
		tspan { white-space:pre }
		.shp0 { fill: #000000 } 
	</style>
	<g id="Layer">
		<path id="Layer" class="shp0" d="M91.2 10.1C66.9 12.9 43.8 25.7 29.2 44.4C20 56 15.1 65.9 10.8 81C8.8 88.1 8.6 91.2 8.3 138.2L7.9 188L22.4 188L36.9 188L37.2 139.2C37.6 91.3 37.6 90.4 39.9 84C44 72.5 48.1 65.9 56.5 57.5C62.7 51.3 66.4 48.5 73 45.2C86.6 38.4 90.3 38 142.1 38L187 38L187 23.5L187 9L142.8 9.1C118.4 9.2 95.2 9.6 91.2 10.1Z" />
		<path id="Layer" class="shp0" d="M464 23.5L464 38L508.9 38C560.5 38 564.5 38.4 577.7 45.1C595.5 54 607.9 70 612.4 89.7C613.7 95.8 614 103.9 614 142.4L614 188L628.6 188L643.1 188L642.8 138.7L642.4 89.5L639.8 79.8C632.4 52.4 614 30.4 588.7 18.5C570.6 10 562.5 9 506.8 9L464 9L464 23.5Z" />
		<path id="Layer" fill-rule="evenodd" class="shp0" d="M97 99L234 99L234 235L97 235L97 99ZM211 121L166.2 121C141.5 121 121 121.3 120.7 121.7C120.3 122 120 142.5 120 167.2L120 212L211 212L211 121Z" />
		<path id="Layer" class="shp0" d="M143.2 166.5L143.5 189.1L165.8 189.3L188 189.5L188 166.7L188 144L165.5 144L143 144L143.2 166.5Z" />
		<path id="Layer" fill-rule="evenodd" class="shp0" d="M302.7 99L325 99L325 143.9L336.3 144.2L347.5 144.5L347.8 155.7L348.1 167L393 167L393 189L383.5 189.1C378.3 189.2 373.6 189.4 373 189.5C372.5 189.6 371.6 189.8 371 189.9C370.4 190 370 198.2 370 212.5L370 235L348.1 235L347.8 223.7L347.5 212.5L336.3 212.2L325 211.9L325 190.1L336.3 189.8L347.5 189.5L347.8 178.2L348.1 167L302 167L302 212L257 212L257 190L279 190L279 167L257 167L257 121L279 121L279 110.7C279 105 279.3 100 279.7 99.7C280 99.3 290.4 99 302.7 99ZM348.1 235L348 258.1L348 258L325.1 258L324.5 280.2L302.5 280.2L301.9 258L279 258L279 280L257 280L257 258L278.9 258L279.2 246.7L279.5 235.5L290.8 235.2L302 234.9L302 258L325 258L325 235L348.1 235ZM348 258.1L359.3 257.8L370.5 257.5L370.8 246.2L371.1 235L393 235L393 258L416.1 258L415.8 269.2C415.6 275.4 415.2 280.4 414.8 280.2C414.3 280.1 399.2 280 381 280L348 280L348 258.1ZM302 121L279 121L279 167L302 167L302 121Z" />
		<path id="Layer" class="shp0" d="M371 121.5L371 144L382 144L393 144L393 121.5L393 99L382 99L371 99L371 121.5Z" />
		<path id="Layer" fill-rule="evenodd" class="shp0" d="M416 99L553 99L552.8 166.7L552.5 234.5L484.3 234.8L416 235L416 99ZM530 121L439 121L439 212L530 212L530 121Z" />
		<path id="Layer" class="shp0" d="M462.2 166.5L462.5 189.1L484.5 189.1L506.5 189.1L506.8 166.5L507 144L484.5 144L462 144L462.2 166.5Z" />
		<path id="Layer" fill-rule="evenodd" class="shp0" d="M120 258L187.9 258L188.2 269.2L188.5 280.5L210.5 280.5L210.8 269.2L211.1 258L234 258L234 281L257 281L257 303L279 303L279 326L257 326L257 349L279 349L279 371L257 371L257 349L234 349L234 371L211 371L211 349L188 349L188 394L120 394L120 372L142.8 371.8L165.5 371.5L165.8 360.2L166.1 349L97 349L97 326L120 326L120 303L97 303L97 281L120 281L120 302.9L131.3 303.2L142.5 303.5L143.1 326.1L165.5 325.5L165.8 303.6C166 286.7 165.7 281.5 164.8 280.8C164.1 280.4 153.7 280 141.8 280L120 280L120 258ZM234 303L188 303L188 326L211 326L211 349L234 349L234 303Z" />
		<path id="Layer" class="shp0" d="M439 269L439 280L450.5 280L462 280L461.6 269.2C461.4 263.3 461.1 258.4 461.1 258.2C461 258.1 456.1 258 450 258L439 258L439 269Z" />
		<path id="Layer" class="shp0" d="M484.1 268.9L483.9 279.9L495 280.2C501.2 280.4 506.4 280.3 506.6 280.1C506.8 279.9 507 274.8 507 268.8L507 258L495.6 258L484.2 258L484.1 268.9Z" />
		<path id="Layer" fill-rule="evenodd" class="shp0" d="M417.5 306C451.3 313.9 477.9 340 487.1 374.1C490.4 386 490.4 408.8 487.2 420.5C484.9 428.7 478.6 442.9 474.9 448.1L472.9 451L511.5 489.3C532.8 510.3 550.8 528.8 551.6 530.3C553.8 534.4 552.7 536.6 544.2 545.2C532.1 557.5 536.8 560.2 490 513.5L450.4 473.9L442.4 478.5C421.3 490.6 395.9 493.9 372.1 487.5C327.1 475.4 297.7 432.6 303 386.7C306.1 359.7 320.9 335 343 320C355 311.9 371 305.7 384.4 304C393.8 302.9 407.7 303.7 417.5 306ZM349 350.1C338.3 360.8 331.9 374 330 389.1C326.6 416.4 341.2 443.9 365.5 456.3C381.5 464.3 400.1 465.9 416.4 460.6C437 453.8 452.8 438 459.6 417.3C462.2 409.5 462.5 407.1 462.4 396.5C462.4 386.1 462 383.4 459.6 376.5C455.9 365.6 450.9 357.8 442.5 349.5C434.7 341.8 423.1 335.2 412.9 332.6C389.7 326.8 365.9 333.3 349 350.1Z" />
		<path id="Layer" class="shp0" d="M234 383L234 394L245.5 394L257 394L257 405.5L257 417L268 417L279 417L279 405.5L279 394L268 394L257 394L257 383L257 372L245.5 372L234 372L234 383Z" />
		<path id="Layer" fill-rule="evenodd" class="shp0" d="M97 417L165.3 417.2L233.5 417.5L233.8 485.2L234 553L97 553L97 417ZM211 440L120 440L120 531L211 531L211 440Z" />
		<path id="Layer" class="shp0" d="M143 485.5L143 508L165.5 508L188 508L188 485.5L188 463L165.5 463L143 463L143 485.5Z" />
		<path id="Layer" class="shp0" d="M257 451L257 462L268 462L279 462L279 451L279 440L268 440L257 440L257 451Z" />
		<path id="Layer" class="shp0" d="M8.3 513.7C8.6 560.6 8.8 563.9 10.8 570.9C18.9 599.3 35.6 620.2 59.9 632.5C79 642 86.6 643 142.8 643L187 643L187 628.6L187 614.1L138.3 613.8C94.6 613.4 88.9 613.2 84 611.6C66.6 605.9 51.5 593.1 44.1 577.8C37.3 563.7 37 561.5 37 509.7L37 464L22.4 464L7.9 464L8.3 513.7Z" />
		<path id="Layer" class="shp0" d="M614 509.7C614 561.5 613.5 565.4 606.3 579.4C601.3 589 589 601.2 579.5 606.2C565.3 613.6 566.9 613.4 512.8 613.8L464 614.1L464 628.6L464 643.2L513.3 642.8C562.4 642.4 562.5 642.4 572.1 639.8C605.5 630.8 630.7 605.7 639.7 572.4L642.4 562.5L642.8 513.2L643.1 464L628.6 464L614 464L614 509.7Z" />
		<path id="Layer" class="shp0" d="M257 496.5L257 508L268 508L279 508L279 496.5L279 485L268 485L257 485L257 496.5Z" />
	</g>
</svg>